<?xml version="1.0" encoding="UTF-8"?>
<svg width="30px" height="30px" version="1.1" viewBox="0 0 700 700" xmlns="http://www.w3.org/2000/svg" xmlns:xlink="http://www.w3.org/1999/xlink">
 <defs>
  <symbol id="x" overflow="visible">
   <path d="m22.062-1.3125c-1.1367 0.58594-2.3242 1.0273-3.5625 1.3281-1.2305 0.30078-2.5117 0.45312-3.8438 0.45312-4 0-7.1719-1.1133-9.5156-3.3438-2.3359-2.2383-3.5-5.2734-3.5-9.1094 0-3.832 1.1641-6.8672 3.5-9.1094 2.3438-2.2383 5.5156-3.3594 9.5156-3.3594 1.332 0 2.6133 0.15234 3.8438 0.45312 1.2383 0.30469 2.4258 0.75 3.5625 1.3438v4.9688c-1.1484-0.78125-2.2773-1.3516-3.3906-1.7188-1.1172-0.36328-2.2891-0.54688-3.5156-0.54688-2.2109 0-3.9492 0.71094-5.2188 2.125-1.2617 1.4062-1.8906 3.3555-1.8906 5.8438 0 2.4805 0.62891 4.4297 1.8906 5.8438 1.2695 1.418 3.0078 2.125 5.2188 2.125 1.2266 0 2.3984-0.17969 3.5156-0.54688 1.1133-0.36328 2.2422-0.9375 3.3906-1.7188z"/>
  </symbol>
  <symbol id="b" overflow="visible">
   <path d="m16.141-13.109c-0.5-0.23828-1-0.41016-1.5-0.51562-0.5-0.11328-1-0.17188-1.5-0.17188-1.4805 0-2.6211 0.47656-3.4219 1.4219-0.79297 0.94922-1.1875 2.3086-1.1875 4.0781v8.2969h-5.7656v-18.016h5.7656v2.9688c0.73828-1.1875 1.5859-2.0508 2.5469-2.5938 0.95703-0.53906 2.1016-0.8125 3.4375-0.8125 0.19531 0 0.40625 0.011719 0.625 0.03125 0.22656 0.011719 0.55469 0.046875 0.98438 0.10938z"/>
  </symbol>
  <symbol id="a" overflow="visible">
   <path d="m20.75-9.0469v1.625h-13.469c0.14453 1.3555 0.63281 2.3711 1.4688 3.0469 0.83203 0.67969 2 1.0156 3.5 1.0156 1.2188 0 2.4609-0.17578 3.7344-0.53125 1.2695-0.36328 2.5703-0.91016 3.9062-1.6406v4.4375c-1.3555 0.51172-2.7148 0.89844-4.0781 1.1562-1.3672 0.26953-2.7305 0.40625-4.0938 0.40625-3.2617 0-5.793-0.82812-7.5938-2.4844-1.8047-1.6562-2.7031-3.9766-2.7031-6.9688 0-2.9375 0.88281-5.25 2.6562-6.9375 1.7695-1.6875 4.2109-2.5312 7.3281-2.5312 2.832 0 5.0977 0.85547 6.7969 2.5625 1.6953 1.7109 2.5469 3.9922 2.5469 6.8438zm-5.9219-1.9219c0-1.0938-0.32031-1.9727-0.95312-2.6406-0.63672-0.67578-1.4688-1.0156-2.5-1.0156-1.1172 0-2.0234 0.32031-2.7188 0.95312-0.69922 0.625-1.1367 1.5273-1.3125 2.7031z"/>
  </symbol>
  <symbol id="e" overflow="visible">
   <path d="m10.844-8.1094c-1.2109 0-2.1172 0.20312-2.7188 0.60938-0.60547 0.40625-0.90625 1.0117-0.90625 1.8125 0 0.73047 0.24219 1.3047 0.73438 1.7188 0.48828 0.40625 1.1641 0.60938 2.0312 0.60938 1.082 0 1.9922-0.38281 2.7344-1.1562 0.73828-0.78125 1.1094-1.7578 1.1094-2.9375v-0.65625zm8.7969-2.1719v10.281h-5.8125v-2.6719c-0.77344 1.0938-1.6406 1.8906-2.6094 2.3906-0.96094 0.5-2.1328 0.75-3.5156 0.75-1.8672 0-3.3828-0.53906-4.5469-1.625-1.1562-1.0938-1.7344-2.5078-1.7344-4.25 0-2.1133 0.72266-3.6602 2.1719-4.6406 1.457-0.98828 3.7383-1.4844 6.8438-1.4844h3.3906v-0.45312c0-0.90625-0.35938-1.5703-1.0781-2-0.71875-0.42578-1.8398-0.64062-3.3594-0.64062-1.2305 0-2.375 0.125-3.4375 0.375s-2.0547 0.62109-2.9688 1.1094v-4.3906c1.2383-0.30078 2.4766-0.53125 3.7188-0.6875 1.25-0.15625 2.4922-0.23438 3.7344-0.23438 3.25 0 5.5938 0.64062 7.0312 1.9219 1.4453 1.2812 2.1719 3.3672 2.1719 6.25z"/>
  </symbol>
  <symbol id="c" overflow="visible">
   <path d="m9.0469-23.125v5.1094h5.9375v4.125h-5.9375v7.6406c0 0.83594 0.16406 1.3984 0.5 1.6875 0.33203 0.29297 0.99219 0.4375 1.9844 0.4375h2.9531v4.125h-4.9375c-2.2734 0-3.8828-0.47266-4.8281-1.4219-0.94922-0.94531-1.4219-2.5547-1.4219-4.8281v-7.6406h-2.8594v-4.125h2.8594v-5.1094z"/>
  </symbol>
  <symbol id="g" overflow="visible">
   <path d="m15.016-15.375v-9.6562h5.7969v25.031h-5.7969v-2.6094c-0.79297 1.0625-1.668 1.8438-2.625 2.3438-0.94922 0.48828-2.0469 0.73438-3.2969 0.73438-2.2305 0-4.0586-0.87891-5.4844-2.6406-1.418-1.7695-2.125-4.0391-2.125-6.8125 0-2.7812 0.70703-5.0508 2.125-6.8125 1.4258-1.7695 3.2539-2.6562 5.4844-2.6562 1.2383 0 2.3359 0.25 3.2969 0.75 0.95703 0.5 1.832 1.2773 2.625 2.3281zm-3.7969 11.656c1.2383 0 2.1797-0.44531 2.8281-1.3438 0.64453-0.90625 0.96875-2.2109 0.96875-3.9219 0-1.7188-0.32422-3.0234-0.96875-3.9219-0.64844-0.90625-1.5898-1.3594-2.8281-1.3594-1.2188 0-2.1523 0.45312-2.7969 1.3594-0.64844 0.89844-0.96875 2.2031-0.96875 3.9219 0 1.7109 0.32031 3.0156 0.96875 3.9219 0.64453 0.89844 1.5781 1.3438 2.7969 1.3438z"/>
  </symbol>
  <symbol id="l" overflow="visible">
   <path d="m12.359-3.7188c1.2266 0 2.1641-0.44531 2.8125-1.3438 0.64453-0.90625 0.96875-2.2109 0.96875-3.9219 0-1.7188-0.32422-3.0234-0.96875-3.9219-0.64844-0.90625-1.5859-1.3594-2.8125-1.3594-1.2422 0-2.1875 0.45312-2.8438 1.3594s-0.98438 2.2148-0.98438 3.9219c0 1.6992 0.32812 3 0.98438 3.9062s1.6016 1.3594 2.8438 1.3594zm-3.8281-11.656c0.78906-1.0508 1.6641-1.8281 2.625-2.3281 0.96875-0.5 2.0781-0.75 3.3281-0.75 2.2188 0 4.0391 0.88672 5.4688 2.6562 1.4258 1.7617 2.1406 4.0312 2.1406 6.8125 0 2.7734-0.71484 5.043-2.1406 6.8125-1.4297 1.7617-3.25 2.6406-5.4688 2.6406-1.25 0-2.3594-0.25-3.3281-0.75-0.96094-0.5-1.8359-1.2734-2.625-2.3281v2.6094h-5.7656v-25.031h5.7656z"/>
  </symbol>
  <symbol id="k" overflow="visible">
   <path d="m0.40625-18.016h5.75l4.8438 12.219 4.125-12.219h5.75l-7.5781 19.719c-0.76172 2.0078-1.6484 3.4102-2.6562 4.2031-1.0117 0.80078-2.3516 1.2031-4.0156 1.2031h-3.3281v-3.7812h1.7969c0.97656 0 1.6875-0.15625 2.125-0.46875 0.44531-0.3125 0.79688-0.87109 1.0469-1.6719l0.15625-0.5z"/>
  </symbol>
  <symbol id="j" overflow="visible">
   <path d="m19.734-23.25v5.0781c-1.3242-0.59375-2.6172-1.0352-3.875-1.3281-1.25-0.30078-2.4336-0.45312-3.5469-0.45312-1.4805 0-2.5742 0.20312-3.2812 0.60938-0.69922 0.40625-1.0469 1.0391-1.0469 1.8906 0 0.64844 0.23438 1.1523 0.70312 1.5156 0.47656 0.35547 1.3477 0.66406 2.6094 0.92188l2.625 0.53125c2.6758 0.53125 4.5781 1.3438 5.7031 2.4375s1.6875 2.6523 1.6875 4.6719c0 2.6484-0.78906 4.6172-2.3594 5.9062-1.5742 1.293-3.9766 1.9375-7.2031 1.9375-1.5234 0-3.0469-0.14844-4.5781-0.4375s-3.0625-0.71875-4.5938-1.2812v-5.2344c1.5312 0.8125 3.0078 1.4297 4.4375 1.8438 1.4375 0.41797 2.8164 0.625 4.1406 0.625 1.3516 0 2.3906-0.22266 3.1094-0.67188 0.71875-0.45703 1.0781-1.1016 1.0781-1.9375 0-0.75-0.24609-1.3281-0.73438-1.7344-0.49219-0.40625-1.4648-0.76953-2.9219-1.0938l-2.3906-0.53125c-2.4062-0.51953-4.168-1.3438-5.2812-2.4688-1.1055-1.125-1.6562-2.6406-1.6562-4.5469 0-2.3945 0.76953-4.2344 2.3125-5.5156 1.5508-1.2891 3.7734-1.9375 6.6719-1.9375 1.3125 0 2.6641 0.10547 4.0625 0.3125 1.3945 0.19922 2.8359 0.49609 4.3281 0.89062z"/>
  </symbol>
  <symbol id="f" overflow="visible">
   <path d="m20.875-10.969v10.969h-5.7969v-8.3906c0-1.5625-0.039063-2.6328-0.10938-3.2188-0.0625-0.59375-0.17969-1.0312-0.34375-1.3125-0.23047-0.375-0.53906-0.66406-0.92188-0.875-0.38672-0.20703-0.82422-0.3125-1.3125-0.3125-1.2109 0-2.1562 0.46484-2.8438 1.3906-0.67969 0.92969-1.0156 2.2148-1.0156 3.8594v8.8594h-5.7656v-18.016h5.7656v2.6406c0.86328-1.0508 1.7812-1.8281 2.75-2.3281 0.97656-0.5 2.0547-0.75 3.2344-0.75 2.082 0 3.6602 0.64062 4.7344 1.9219 1.082 1.2734 1.625 3.125 1.625 5.5625z"/>
  </symbol>
  <symbol id="w" overflow="visible">
   <path d="m17.594-4.375h-9.6875l-1.5156 4.375h-6.2344l8.8906-24.016h7.3906l8.8906 24.016h-6.2188zm-8.1406-4.4531h6.5781l-3.2812-9.5469z"/>
  </symbol>
  <symbol id="i" overflow="visible">
   <path d="m17.328-17.453v4.7031c-0.79297-0.53906-1.5859-0.9375-2.375-1.1875-0.78125-0.25781-1.5938-0.39062-2.4375-0.39062-1.6172 0-2.8711 0.46875-3.7656 1.4062-0.88672 0.9375-1.3281 2.25-1.3281 3.9375 0 1.6797 0.44141 2.9844 1.3281 3.9219 0.89453 0.9375 2.1484 1.4062 3.7656 1.4062 0.89453 0 1.75-0.12891 2.5625-0.39062 0.8125-0.26953 1.5625-0.67188 2.25-1.2031v4.7188c-0.90625 0.33594-1.8242 0.58203-2.75 0.75-0.92969 0.16406-1.8594 0.25-2.7969 0.25-3.2422 0-5.7773-0.83203-7.6094-2.5-1.8359-1.6641-2.75-3.9844-2.75-6.9531s0.91406-5.2852 2.75-6.9531c1.832-1.6758 4.3672-2.5156 7.6094-2.5156 0.94531 0 1.8789 0.085937 2.7969 0.25 0.91406 0.16797 1.832 0.41797 2.75 0.75z"/>
  </symbol>
  <symbol id="h" overflow="visible">
   <path d="m20.875-10.969v10.969h-5.7969v-8.3594c0-1.582-0.039063-2.6641-0.10938-3.25-0.0625-0.59375-0.17969-1.0312-0.34375-1.3125-0.23047-0.375-0.53906-0.66406-0.92188-0.875-0.38672-0.20703-0.82422-0.3125-1.3125-0.3125-1.2109 0-2.1562 0.46484-2.8438 1.3906-0.67969 0.92969-1.0156 2.2148-1.0156 3.8594v8.8594h-5.7656v-25.031h5.7656v9.6562c0.86328-1.0508 1.7812-1.8281 2.75-2.3281 0.97656-0.5 2.0547-0.75 3.2344-0.75 2.082 0 3.6602 0.64062 4.7344 1.9219 1.082 1.2734 1.625 3.125 1.625 5.5625z"/>
  </symbol>
  <symbol id="d" overflow="visible">
   <path d="m11.344-14.328c-1.2812 0-2.2578 0.46094-2.9219 1.375-0.66797 0.91797-1 2.2422-1 3.9688 0 1.7188 0.33203 3.0391 1 3.9531 0.66406 0.91797 1.6406 1.375 2.9219 1.375 1.25 0 2.207-0.45703 2.875-1.375 0.66406-0.91406 1-2.2344 1-3.9531 0-1.7266-0.33594-3.0508-1-3.9688-0.66797-0.91406-1.625-1.375-2.875-1.375zm0-4.125c3.0938 0 5.5078 0.83984 7.25 2.5156 1.75 1.6797 2.625 3.9961 2.625 6.9531 0 2.9609-0.875 5.2773-2.625 6.9531-1.7422 1.668-4.1562 2.5-7.25 2.5-3.1172 0-5.5469-0.83203-7.2969-2.5-1.75-1.6758-2.625-3.9922-2.625-6.9531 0-2.957 0.875-5.2734 2.625-6.9531 1.75-1.6758 4.1797-2.5156 7.2969-2.5156z"/>
  </symbol>
  <symbol id="v" overflow="visible">
   <path d="m9.2188-19.328v14.641h2.2188c2.5312 0 4.4609-0.625 5.7969-1.875 1.332-1.25 2-3.0703 2-5.4688 0-2.375-0.66797-4.1797-2-5.4219-1.3242-1.25-3.2578-1.875-5.7969-1.875zm-6.1875-4.6875h6.5156c3.6445 0 6.3594 0.26172 8.1406 0.78125 1.7891 0.52344 3.3281 1.4023 4.6094 2.6406 1.125 1.0859 1.957 2.3359 2.5 3.75 0.55078 1.418 0.82812 3.0234 0.82812 4.8125 0 1.8125-0.27734 3.4336-0.82812 4.8594-0.54297 1.418-1.375 2.668-2.5 3.75-1.293 1.2422-2.8398 2.1211-4.6406 2.6406-1.8047 0.52344-4.5078 0.78125-8.1094 0.78125h-6.5156z"/>
  </symbol>
  <symbol id="u" overflow="visible">
   <path d="m16.844-17.453v4.375c-1.2422-0.50781-2.4336-0.89453-3.5781-1.1562-1.1484-0.25781-2.2305-0.39062-3.25-0.39062-1.0938 0-1.9062 0.14062-2.4375 0.42188-0.53125 0.27344-0.79688 0.6875-0.79688 1.25 0 0.46875 0.20312 0.82812 0.60938 1.0781 0.40625 0.24219 1.125 0.41797 2.1562 0.53125l1.0156 0.15625c2.9453 0.375 4.9297 0.99219 5.9531 1.8438 1.0195 0.85547 1.5312 2.1992 1.5312 4.0312 0 1.9297-0.71094 3.375-2.125 4.3438-1.418 0.96094-3.5312 1.4375-6.3438 1.4375-1.1875 0-2.418-0.09375-3.6875-0.28125-1.2734-0.1875-2.5742-0.46875-3.9062-0.84375v-4.375c1.1445 0.55469 2.3164 0.96875 3.5156 1.25 1.207 0.28125 2.4375 0.42188 3.6875 0.42188 1.125 0 1.9688-0.15625 2.5312-0.46875 0.57031-0.3125 0.85938-0.76953 0.85938-1.375 0-0.51953-0.19922-0.90625-0.59375-1.1562-0.38672-0.25-1.1641-0.44531-2.3281-0.59375l-1.0156-0.125c-2.5625-0.32031-4.3594-0.91406-5.3906-1.7812-1.0312-0.875-1.5469-2.1914-1.5469-3.9531 0-1.9141 0.64844-3.332 1.9531-4.25 1.3125-0.92578 3.3203-1.3906 6.0312-1.3906 1.0625 0 2.1758 0.085937 3.3438 0.25 1.1641 0.15625 2.4375 0.40625 3.8125 0.75z"/>
  </symbol>
  <symbol id="t" overflow="visible">
   <path d="m2.7656-18.016h5.7656v18.016h-5.7656zm0-7.0156h5.7656v4.7031h-5.7656z"/>
  </symbol>
  <symbol id="s" overflow="visible">
   <path d="m15.016-3.0625c-0.79297 1.0547-1.668 1.8281-2.625 2.3281-0.94922 0.49219-2.0469 0.73438-3.2969 0.73438-2.1992 0-4.0156-0.86328-5.4531-2.5938-1.4375-1.7266-2.1562-3.9375-2.1562-6.625s0.71875-4.8906 2.1562-6.6094c1.4375-1.7266 3.2539-2.5938 5.4531-2.5938 1.25 0 2.3477 0.25 3.2969 0.75 0.95703 0.49219 1.832 1.2656 2.625 2.3281v-2.6719h5.7969v16.203c0 2.8945-0.91797 5.1016-2.75 6.625-1.8242 1.5312-4.4766 2.2969-7.9531 2.2969-1.125 0-2.2148-0.089844-3.2656-0.26562-1.043-0.16797-2.0938-0.42969-3.1562-0.78125v-4.4844c1 0.57031 1.9844 1 2.9531 1.2812 0.96875 0.28906 1.9375 0.4375 2.9062 0.4375 1.8945 0 3.2812-0.41797 4.1562-1.25 0.875-0.82422 1.3125-2.1094 1.3125-3.8594zm-3.7969-11.203c-1.1875 0-2.1172 0.44531-2.7812 1.3281-0.65625 0.875-0.98438 2.1172-0.98438 3.7188 0 1.6562 0.31641 2.9141 0.95312 3.7656 0.64453 0.84375 1.582 1.2656 2.8125 1.2656 1.207 0 2.1406-0.4375 2.7969-1.3125 0.66406-0.875 1-2.1133 1-3.7188 0-1.6016-0.33594-2.8438-1-3.7188-0.65625-0.88281-1.5898-1.3281-2.7969-1.3281z"/>
  </symbol>
  <symbol id="r" overflow="visible">
   <path d="m14.625-25.031v3.7812h-3.1875c-0.8125 0-1.3828 0.15234-1.7031 0.45312-0.32422 0.29297-0.48438 0.80469-0.48438 1.5312v1.25h4.9219v4.125h-4.9219v13.891h-5.7656v-13.891h-2.8594v-4.125h2.8594v-1.25c0-1.957 0.54688-3.4062 1.6406-4.3438 1.0938-0.94531 2.7891-1.4219 5.0938-1.4219z"/>
  </symbol>
  <symbol id="q" overflow="visible">
   <path d="m19.453-15.016c0.72656-1.1133 1.5938-1.9609 2.5938-2.5469 1.0078-0.59375 2.1133-0.89062 3.3125-0.89062 2.0703 0 3.6484 0.64062 4.7344 1.9219 1.082 1.2734 1.625 3.125 1.625 5.5625v10.969h-5.7969v-9.3906c0.007813-0.13281 0.015625-0.27344 0.015625-0.42188 0.007812-0.15625 0.015625-0.375 0.015625-0.65625 0-1.2812-0.1875-2.207-0.5625-2.7812-0.375-0.57031-0.98047-0.85938-1.8125-0.85938-1.0938 0-1.9375 0.45312-2.5312 1.3594-0.59375 0.89844-0.90234 2.1992-0.92188 3.9062v8.8438h-5.7969v-9.3906c0-2-0.17188-3.2852-0.51562-3.8594-0.34375-0.57031-0.95312-0.85938-1.8281-0.85938-1.1055 0-1.9609 0.45312-2.5625 1.3594-0.59375 0.90625-0.89062 2.2031-0.89062 3.8906v8.8594h-5.7969v-18.016h5.7969v2.6406c0.69531-1.0195 1.5039-1.7852 2.4219-2.2969 0.91406-0.51953 1.9258-0.78125 3.0312-0.78125 1.25 0 2.3477 0.30469 3.2969 0.90625 0.95703 0.60547 1.6797 1.4492 2.1719 2.5312z"/>
  </symbol>
  <symbol id="p" overflow="visible">
   <path d="m3.0312-24.016h6.9062l8.7344 16.469v-16.469h5.875v24.016h-6.9219l-8.7344-16.469v16.469h-5.8594z"/>
  </symbol>
  <symbol id="o" overflow="visible">
   <path d="m2.5781-7.0156v-11h5.7812v1.7969c0 0.98047-0.007813 2.2109-0.015625 3.6875-0.011719 1.4688-0.015625 2.4531-0.015625 2.9531 0 1.4375 0.035156 2.4805 0.10938 3.125 0.082031 0.63672 0.21094 1.1016 0.39062 1.3906 0.23828 0.375 0.54688 0.66797 0.92188 0.875 0.38281 0.19922 0.82031 0.29688 1.3125 0.29688 1.1953 0 2.1406-0.45703 2.8281-1.375 0.6875-0.92578 1.0312-2.2109 1.0312-3.8594v-8.8906h5.7656v18.016h-5.7656v-2.6094c-0.86719 1.0547-1.7812 1.8281-2.75 2.3281s-2.043 0.75-3.2188 0.75c-2.0742 0-3.6562-0.63281-4.75-1.9062-1.0859-1.2812-1.625-3.1406-1.625-5.5781z"/>
  </symbol>
  <symbol id="n" overflow="visible">
   <path d="m3.0312-24.016h10.266c3.0625 0 5.4102 0.68359 7.0469 2.0469 1.6328 1.3555 2.4531 3.2891 2.4531 5.7969 0 2.5117-0.82031 4.4492-2.4531 5.8125-1.6367 1.3555-3.9844 2.0312-7.0469 2.0312h-4.0781v8.3281h-6.1875zm6.1875 4.4844v6.7188h3.4219c1.1953 0 2.125-0.28906 2.7812-0.875 0.65625-0.59375 0.98438-1.4219 0.98438-2.4844 0-1.0703-0.32812-1.8984-0.98438-2.4844-0.65625-0.58203-1.5859-0.875-2.7812-0.875z"/>
  </symbol>
  <symbol id="m" overflow="visible">
   <path d="m2.7656-18.016h5.7656v17.688c0 2.4141-0.58594 4.2578-1.75 5.5312-1.1562 1.2695-2.8359 1.9062-5.0312 1.9062h-2.8438v-3.7812h1c1.0938 0 1.8438-0.25 2.25-0.75 0.40625-0.49219 0.60938-1.4609 0.60938-2.9062zm0-7.0156h5.7656v4.7031h-5.7656z"/>
  </symbol>
 </defs>
 <g>
  <path fill="#8e8e8e" d="m346.97 540.23c-67.438 0.027344-135.11-25.707-186.61-77.207-51.367-51.363-77.195-118.85-77.188-186.17-0.019531-67.414 25.727-135.04 77.195-186.5 51.406-51.41 118.95-77.203 186.34-77.184 67.379-0.019531 134.93 25.773 186.34 77.18l-14.051 14.059-14.051 14.051c-43.738-43.727-100.91-65.504-158.23-65.523-57.332 0.027344-114.49 21.801-158.23 65.527-43.766 43.785-65.52 100.98-65.539 158.39 0.011719 57.246 21.84 114.34 65.539 158.06 43.797 43.793 101.04 65.52 158.49 65.539 57.23-0.011719 114.3-21.84 157.99-65.527 43.66-43.688 65.492-100.75 65.508-157.99-0.011719-57.438-21.746-114.68-65.52-158.47l28.117-28.117c51.48 51.48 77.211 119.16 77.172 186.59 0.011719 67.324-25.824 134.77-77.18 186.11-51.328 51.309-118.74 77.18-186.05 77.18-0.015625 0.007813-0.035156 0.007813-0.035156 0.007813zm102.6-160.67c7.4375-7.4375 7.4375-19.5 0-26.938l-75.93-75.918 75.93-75.922c7.4375-7.4258 7.4375-19.488 0-26.906-7.4531-7.4453-19.508-7.4453-26.934-0.007812l-75.914 75.922-75.922-75.93c-7.4375-7.4453-19.496-7.4375-26.918 0-7.4453 7.4297-7.4453 19.488 0 26.918l75.914 75.926-75.938 75.922c-7.4375 7.4453-7.4453 19.508 0 26.953 7.4258 7.4258 19.496 7.4297 26.926-0.011719l75.938-75.918 75.918 75.918c7.4375 7.4375 19.492 7.4375 26.93-0.007812z"/>
 
 </g>
</svg>
